<mxfile host="app.diagrams.net" agent="Mozilla/5.0 (Windows NT 10.0; Win64; x64) AppleWebKit/537.36 (KHTML, like Gecko) Chrome/131.0.0.0 Safari/537.36" version="25.0.3">
  <diagram name="Page-1" id="Q5WN-xpbz-5ckiEemsdJ">
    <mxGraphModel dx="1259" dy="686" grid="1" gridSize="10" guides="1" tooltips="1" connect="1" arrows="1" fold="1" page="1" pageScale="1" pageWidth="850" pageHeight="1100" math="0" shadow="0">
      <root>
        <mxCell id="0" />
        <mxCell id="1" parent="0" />
        <mxCell id="oS1wH8N3jfI-g7qt8N61-1" value="" style="shape=image;html=1;verticalAlign=top;verticalLabelPosition=bottom;labelBackgroundColor=#ffffff;imageAspect=0;aspect=fixed;image=https://cdn0.iconfinder.com/data/icons/construction-2-21/512/construction-industry-building-41-128.png" vertex="1" parent="1">
          <mxGeometry x="150" y="180" width="128" height="128" as="geometry" />
        </mxCell>
        <mxCell id="oS1wH8N3jfI-g7qt8N61-2" value="" style="shape=image;html=1;verticalAlign=top;verticalLabelPosition=bottom;labelBackgroundColor=#ffffff;imageAspect=0;aspect=fixed;image=https://cdn0.iconfinder.com/data/icons/construction-2-21/512/construction-industry-building-41-128.png" vertex="1" parent="1">
          <mxGeometry x="240" y="300" width="128" height="128" as="geometry" />
        </mxCell>
        <mxCell id="oS1wH8N3jfI-g7qt8N61-3" value="" style="shape=image;html=1;verticalAlign=top;verticalLabelPosition=bottom;labelBackgroundColor=#ffffff;imageAspect=0;aspect=fixed;image=https://cdn0.iconfinder.com/data/icons/construction-2-21/512/construction-industry-building-41-128.png" vertex="1" parent="1">
          <mxGeometry x="330" y="420" width="128" height="128" as="geometry" />
        </mxCell>
        <mxCell id="oS1wH8N3jfI-g7qt8N61-4" value="&lt;b&gt;O/P&lt;/b&gt;" style="text;html=1;align=center;verticalAlign=middle;resizable=0;points=[];autosize=1;strokeColor=none;fillColor=none;" vertex="1" parent="1">
          <mxGeometry x="278" y="240" width="40" height="30" as="geometry" />
        </mxCell>
        <mxCell id="oS1wH8N3jfI-g7qt8N61-5" value="&lt;b&gt;O/P&lt;/b&gt;" style="text;html=1;align=center;verticalAlign=middle;resizable=0;points=[];autosize=1;strokeColor=none;fillColor=none;" vertex="1" parent="1">
          <mxGeometry x="278" y="308" width="40" height="30" as="geometry" />
        </mxCell>
      </root>
    </mxGraphModel>
  </diagram>
</mxfile>
